<svg width="45" height="45" viewBox="0 0 45 45" fill="none" xmlns="http://www.w3.org/2000/svg">
<path d="M26.1184 43.2878V28.2447H31.0662L31.8206 22.2763H26.1184V18.46C26.1184 17.4838 26.3181 16.7738 26.6953 16.2856C27.0947 15.7975 27.8269 15.5535 28.9584 15.5535H32.0203V10.2063C30.9775 10.051 29.4909 9.9622 27.5828 9.9622C25.3419 9.9622 23.5447 10.65 22.1912 12.0256C20.8378 13.4013 20.1722 15.3538 20.1722 17.861V22.2541H15.2022V28.2225H20.15V43.3766C9.61094 42.0675 1.44594 33.0816 1.44594 22.1875C1.44594 10.3838 11.0088 0.798767 22.8347 0.798767C34.6606 0.798767 44.2234 10.3616 44.2234 22.1875C44.2234 32.8819 36.3691 41.7125 26.1184 43.2878Z" fill="#F4DFC8"/>
</svg>
