<svg width="45" height="45" viewBox="0 0 45 45" fill="none" xmlns="http://www.w3.org/2000/svg">
<circle cx="22.19" cy="22.19" r="21.19" stroke="#F4DFC8" stroke-width="2"/>
<path d="M26.1925 9C27.2113 9.00002 28.2038 9.32237 29.0282 9.9209C29.8525 10.5194 30.4663 11.3634 30.7817 12.3321C31.0971 13.3007 31.098 14.3444 30.7841 15.3135C30.4702 16.2827 29.8577 17.1276 29.0343 17.7275C29.5801 18.1042 30.0452 18.5859 30.4025 19.1445C30.7599 19.7031 31.0022 20.3274 31.1154 20.9808C31.2285 21.6341 31.2103 22.3035 31.0617 22.9498C30.913 23.596 30.637 24.2062 30.2498 24.7444C29.8625 25.2827 29.3718 25.7384 28.8064 26.0848C28.2409 26.4312 27.612 26.6613 26.9566 26.7617C26.3011 26.8622 25.6322 26.8309 24.989 26.6697C24.3457 26.5085 23.7411 26.2207 23.2105 25.823L22.9749 25.6505V29.7536C22.9748 30.606 22.7563 31.4441 22.3401 32.1879C21.924 32.9317 21.3242 33.5565 20.5979 34.0026C19.8716 34.4487 19.0432 34.7013 18.1916 34.7361C17.3399 34.771 16.4936 34.587 15.7333 34.2017C14.973 33.8165 14.3241 33.2428 13.8486 32.5354C13.3731 31.8281 13.0868 31.0106 13.017 30.1612C12.9473 29.3117 13.0964 28.4585 13.4501 27.6831C13.8039 26.9076 14.3505 26.2358 15.0377 25.7316C14.4057 25.2687 13.8919 24.6632 13.5379 23.9643C13.1839 23.2655 12.9997 22.493 13.0003 21.7096C13.0003 20.0828 13.779 18.6374 14.9849 17.7275C14.179 17.1405 13.5747 16.3183 13.2549 15.374C12.9352 14.4296 12.9157 13.4094 13.1993 12.4536C13.4828 11.4977 14.0554 10.6531 14.8384 10.0359C15.6214 9.41864 16.5763 9.05901 17.5719 9.00644L17.8254 9H26.1925ZM21.0444 26.6969H17.9876C17.392 26.6971 16.8094 26.8712 16.3115 27.1979C15.8135 27.5247 15.4218 27.9898 15.1846 28.5361C14.9474 29.0824 14.8749 29.6861 14.9761 30.273C15.0773 30.86 15.3478 31.4046 15.7543 31.8399C16.1608 32.2752 16.6856 32.5823 17.2642 32.7234C17.8429 32.8645 18.4501 32.8334 19.0114 32.6341C19.5726 32.4348 20.0634 32.0759 20.4234 31.6014C20.7835 31.1269 20.997 30.5576 21.0379 29.9634L21.0444 29.7536V26.6969ZM21.0444 18.6529H17.9876C17.193 18.6498 16.4285 18.9562 15.856 19.5072C15.2835 20.0582 14.9481 20.8105 14.9208 21.6046C14.8935 22.3987 15.1765 23.1723 15.7098 23.7613C16.2432 24.3503 16.9849 24.7085 17.7778 24.7599L17.9876 24.7663H21.0444V18.6529ZM26.0317 18.6529C25.221 18.6529 24.4435 18.9749 23.8702 19.5482C23.297 20.1214 22.9749 20.8989 22.9749 21.7096C22.9749 22.5203 23.297 23.2978 23.8702 23.871C24.4435 24.4443 25.221 24.7663 26.0317 24.7663C26.8424 24.7663 27.6199 24.4443 28.1931 23.871C28.7664 23.2978 29.0884 22.5203 29.0884 21.7096C29.0884 20.8989 28.7664 20.1214 28.1931 19.5482C27.6199 18.9749 26.8424 18.6529 26.0317 18.6529ZM21.0444 10.9306H17.8267C17.0587 10.9306 16.3221 11.2357 15.7791 11.7787C15.236 12.3218 14.9309 13.0584 14.9309 13.8264C14.9309 14.5945 15.236 15.331 15.7791 15.8741C16.3221 16.4172 17.0587 16.7223 17.8267 16.7223H21.0444V10.9306ZM26.1925 10.9306H22.9749V16.7223H26.1925C26.9606 16.7223 27.6971 16.4172 28.2402 15.8741C28.7833 15.331 29.0884 14.5945 29.0884 13.8264C29.0884 13.0584 28.7833 12.3218 28.2402 11.7787C27.6971 11.2357 26.9606 10.9306 26.1925 10.9306Z" fill="#F4DFC8"/>
</svg>
