<svg width="46" height="45" viewBox="0 0 46 45" fill="none" xmlns="http://www.w3.org/2000/svg">
<path d="M22.8437 1.84894C17.5066 1.79471 12.3664 3.86173 8.55263 7.59573C4.73889 11.3297 2.56373 16.4252 2.50519 21.7622C2.52575 25.98 3.88256 30.0828 6.38072 33.4812C8.87888 36.8796 12.3899 39.3989 16.4094 40.6771C17.4263 40.862 17.7961 40.2518 17.7961 39.7156V36.332C12.1383 37.5338 10.9364 33.6695 10.9364 33.6695C10.5598 32.4564 9.75908 31.4194 8.68071 30.7482C6.83175 29.5278 8.82863 29.5463 8.82863 29.5463C9.46772 29.6318 10.0792 29.8608 10.6171 30.2162C11.1551 30.5717 11.6056 31.0443 11.9349 31.5987C12.5087 32.5936 13.4502 33.3236 14.5567 33.6313C15.6633 33.9391 16.8464 33.8001 17.8515 33.2443C17.9549 32.2317 18.4134 31.2885 19.1458 30.5818C14.6344 30.0825 9.90102 28.3815 9.90102 20.7453C9.86068 18.7534 10.5967 16.8239 11.9534 15.3648C11.3355 13.6547 11.4085 11.771 12.1567 10.1138C12.1567 10.1138 13.8763 9.57759 17.7036 12.1476C21.0353 11.2598 24.5413 11.2598 27.8729 12.1476C31.7557 9.57759 33.4198 10.1138 33.4198 10.1138C34.1681 11.771 34.241 13.6547 33.6232 15.3648C35.0114 16.7971 35.7873 18.7137 35.7864 20.7083C35.7864 28.363 31.0161 30.0456 26.5416 30.5448C27.0316 31.0205 27.41 31.5988 27.6498 32.2382C27.8896 32.8776 27.9847 33.5621 27.9284 34.2427V39.6971C27.9284 40.3443 28.2982 40.862 29.3151 40.6586C33.3232 39.3724 36.8223 36.8526 39.3128 33.459C41.8032 30.0654 43.1575 25.9715 43.1823 21.7622C43.1237 16.4252 40.9486 11.3297 37.1348 7.59573C33.3211 3.86173 28.1808 1.79471 22.8437 1.84894Z" fill="#F4DFC8"/>
</svg>
