<svg width="46" height="45" viewBox="0 0 46 45" fill="none" xmlns="http://www.w3.org/2000/svg">
<path d="M23.1562 13.2995C18.2377 13.2995 14.2682 17.269 14.2682 22.1875C14.2682 27.106 18.2377 31.0755 23.1562 31.0755C28.0748 31.0755 32.0442 27.106 32.0442 22.1875C32.0442 17.269 28.0748 13.2995 23.1562 13.2995ZM23.1562 27.9641C19.9754 27.9641 17.3797 25.3683 17.3797 22.1875C17.3797 19.0067 19.9754 16.411 23.1562 16.411C26.337 16.411 28.9328 19.0067 28.9328 22.1875C28.9328 25.3683 26.337 27.9641 23.1562 27.9641ZM32.4082 10.8641C31.2599 10.8641 30.3325 11.7914 30.3325 12.9398C30.3325 14.0882 31.2599 15.0156 32.4082 15.0156C33.5566 15.0156 34.484 14.0925 34.484 12.9398C34.4797 11.7871 33.5566 10.8641 32.4082 10.8641Z" fill="#F4DFC8"/>
<path d="M40.4815 22.1875C40.4815 19.7954 40.5032 17.425 40.3689 15.0372C40.2345 12.2638 39.6018 9.80238 37.5738 7.7743C35.5414 5.74189 33.0843 5.11353 30.3108 4.97919C27.9187 4.84486 25.5483 4.86652 23.1606 4.86652C20.7685 4.86652 18.398 4.84486 16.0103 4.97919C13.2369 5.11353 10.7754 5.74622 8.74735 7.7743C6.71494 9.80671 6.08659 12.2638 5.95225 15.0372C5.81791 17.4293 5.83958 19.7998 5.83958 22.1875C5.83958 24.5753 5.81791 26.95 5.95225 29.3378C6.08659 32.1112 6.71928 34.5726 8.74735 36.6007C10.7798 38.6331 13.2369 39.2615 16.0103 39.3958C18.4024 39.5302 20.7728 39.5085 23.1606 39.5085C25.5526 39.5085 27.9231 39.5302 30.3108 39.3958C33.0843 39.2615 35.5457 38.6288 37.5738 36.6007C39.6062 34.5683 40.2345 32.1112 40.3689 29.3378C40.5075 26.95 40.4815 24.5796 40.4815 22.1875ZM36.6681 32.4059C36.3517 33.1946 35.9704 33.7839 35.3594 34.3906C34.7483 35.0017 34.1633 35.383 33.3746 35.6994C31.0952 36.6051 25.6827 36.4014 23.1562 36.4014C20.6298 36.4014 15.2129 36.6051 12.9335 35.7037C12.1448 35.3873 11.5555 35.006 10.9488 34.395C10.3377 33.7839 9.9564 33.1989 9.64005 32.4102C8.73869 30.1265 8.94236 24.7139 8.94236 22.1875C8.94236 19.6611 8.73869 14.2442 9.64005 11.9648C9.9564 11.1761 10.3377 10.5867 10.9488 9.98005C11.5598 9.37336 12.1448 8.98768 12.9335 8.67133C15.2129 7.76997 20.6298 7.97364 23.1562 7.97364C25.6827 7.97364 31.0995 7.76997 33.3789 8.67133C34.1676 8.98768 34.757 9.36903 35.3637 9.98005C35.9747 10.5911 36.3561 11.1761 36.6724 11.9648C37.5738 14.2442 37.3701 19.6611 37.3701 22.1875C37.3701 24.7139 37.5738 30.1265 36.6681 32.4059Z" fill="#F4DFC8"/>
</svg>
