<svg width="45" height="45" viewBox="0 0 45 45" fill="none" xmlns="http://www.w3.org/2000/svg">
<g clip-path="url(#clip0_39_50)">
<path d="M36.9218 0H7.45411C3.35475 0 0.00088501 3.35386 0.00088501 7.45323V36.9209C0.00088501 41.0202 3.35475 44.3741 7.45411 44.3741H36.9218C41.0211 44.3741 44.375 41.0202 44.375 36.9209V7.45323C44.375 3.35386 41.0211 0 36.9218 0ZM16.6406 36.0547H11.0937V16.6406H16.6406V36.0547ZM13.8672 13.8672C12.3354 13.8672 11.0937 12.6256 11.0937 11.0938C11.0937 9.56192 12.3354 8.32031 13.8672 8.32031C15.399 8.32031 16.6406 9.56192 16.6406 11.0938C16.6406 12.6256 15.399 13.8672 13.8672 13.8672ZM36.0547 36.0547H30.5078V24.9609C30.5078 23.4291 29.2662 22.1875 27.7344 22.1875C26.2025 22.1875 24.9609 23.4291 24.9609 24.9609V36.0547H19.4141V16.6406H24.9609V20.0841C26.1049 18.5124 27.8533 16.6406 29.8147 16.6406C33.2608 16.6406 36.0547 19.7451 36.0547 23.5747V36.0556V36.0547Z" fill="#F4DFC8"/>
</g>
<defs>
<clipPath id="clip0_39_50">
<rect width="44.375" height="44.375" fill="white"/>
</clipPath>
</defs>
</svg>
