<svg width="28" height="28" viewBox="0 0 28 28" fill="none" xmlns="http://www.w3.org/2000/svg">
<path d="M26.2399 20.8256L22.2677 16.8534C21.2914 15.8771 19.7085 15.8771 18.7322 16.8534L17.303 18.2827C14.0384 16.6164 11.3834 13.9615 9.71718 10.6969L11.1464 9.26763C12.1227 8.29132 12.1227 6.70841 11.1464 5.73209L7.17424 1.75991C6.24957 0.835239 4.75039 0.835239 3.82572 1.75991C0.586001 4.99962 0.221497 10.1286 2.97049 13.7939L4.74283 16.157C6.76116 18.8481 9.15173 21.2387 11.8428 23.257L14.206 25.0293C17.8713 27.7783 23.0002 27.4138 26.2399 24.1741C27.1646 23.2495 27.1646 21.7503 26.2399 20.8256Z" stroke="#F4DFC8" stroke-width="2"/>
</svg>
