<svg width="30" height="30" viewBox="0 0 30 30" fill="none" xmlns="http://www.w3.org/2000/svg">
<path fill-rule="evenodd" clip-rule="evenodd" d="M12.6893 15.8965L8.1921 14.3975C5.83888 13.6131 4.66228 13.2209 4.66228 12.5001C4.66228 11.7793 5.83889 11.3871 8.1921 10.6027L21.2053 6.26501C22.8611 5.71308 23.689 5.43711 24.126 5.87413C24.563 6.31114 24.287 7.13904 23.7351 8.79483L19.3974 21.808L19.3974 21.808C18.613 24.1612 18.2208 25.3378 17.5 25.3378C16.7792 25.3378 16.387 24.1612 15.6026 21.808L14.1036 17.3108L19.4571 11.9572C19.8476 11.5667 19.8476 10.9335 19.4571 10.543C19.0666 10.1525 18.4334 10.1525 18.0429 10.543L12.6893 15.8965Z" fill="#F4DFC8"/>
</svg>
