<svg width="45" height="45" viewBox="0 0 45 45" fill="none" xmlns="http://www.w3.org/2000/svg">
<g clip-path="url(#clip0_39_43)">
<path d="M22.5 0C10.2115 0 0.3125 9.89904 0.3125 22.1875C0.3125 34.476 10.2115 44.375 22.5 44.375C34.7885 44.375 44.6875 34.476 44.6875 22.1875C44.6875 9.89904 34.7885 0 22.5 0ZM33.2524 15.8726C33.0817 16.0433 33.0817 16.2139 32.9111 16.2139C32.5697 16.5553 32.2284 16.726 31.887 16.8966C31.7163 16.8966 31.7163 17.0673 31.7163 17.238C31.887 19.1154 31.5457 20.9928 30.863 22.8702C29.6683 26.113 27.1082 28.6731 24.0361 30.2091C21.476 31.7452 18.4038 32.2572 15.6731 31.5745C14.3077 31.4038 13.113 30.8918 12.0889 30.2091L11.9183 30.0385C11.9183 29.8678 12.0889 29.6971 12.2596 29.6971C13.113 29.6971 13.9663 29.5264 14.8197 29.1851C15.6731 28.8438 16.5264 28.3317 17.2091 27.8197L17.3798 27.649C17.3798 27.4784 17.3798 27.3077 17.2091 27.3077C16.5264 27.137 16.0144 26.7957 15.5024 26.4543C14.8197 26.113 14.3077 25.4303 13.9663 24.7476V24.5769C13.9663 24.4063 14.137 24.2356 14.3077 24.2356H14.8197C14.9904 24.2356 14.9904 24.2356 14.9904 24.0649C15.1611 23.8942 14.9904 23.7236 14.8197 23.5529C14.137 23.2115 13.625 22.6995 13.113 22.1875C12.4303 21.5048 12.0889 20.6514 12.0889 19.7981V19.6274C12.0889 19.4567 12.4303 19.4567 12.4303 19.4567C12.601 19.4567 12.7716 19.6274 12.9423 19.6274H13.2837C13.4543 19.6274 13.4543 19.6274 13.625 19.4567C13.7957 19.2861 13.7957 19.1154 13.625 18.9447C12.9423 18.262 12.4303 17.4087 12.2596 16.3846C12.0889 15.5312 12.2596 14.5072 12.601 13.6538V13.4832C12.2596 13.6538 12.4303 13.6538 12.601 13.8245C13.7957 15.0192 14.9904 16.0433 16.5264 16.8966C18.2332 17.75 20.1106 18.262 21.988 18.262C22.1587 18.262 22.3293 18.0913 22.3293 17.9207C22.3293 16.8966 22.6707 13.4832 25.7428 12.6298C27.2788 12.1178 29.1562 12.4591 30.351 13.8245C30.351 13.8245 30.5216 13.9952 30.6923 13.9952C31.0337 13.9952 31.375 13.8245 31.887 13.8245C32.2284 13.6538 32.5697 13.6538 32.9111 13.4832H33.2524C33.4231 13.4832 33.4231 13.8245 33.4231 13.9952C33.2524 14.3365 32.9111 14.6779 32.5697 15.0192L32.399 15.1899C32.2284 15.1899 32.2284 15.3606 32.2284 15.5312C32.2284 15.7019 32.399 15.8726 32.5697 15.8726C32.7404 15.8726 32.9111 15.8726 33.2524 15.7019H33.5938C33.4231 15.5312 33.4231 15.8726 33.2524 15.8726Z" fill="#F4DFC8"/>
</g>
<defs>
<clipPath id="clip0_39_43">
<rect width="44.375" height="44.375" fill="white" transform="translate(0.3125)"/>
</clipPath>
</defs>
</svg>
